<?xml version="1.0" standalone="no"?>
<!DOCTYPE svg PUBLIC "-//W3C//DTD SVG 20010904//EN"
 "http://www.w3.org/TR/2001/REC-SVG-20010904/DTD/svg10.dtd">
<svg version="1.0" xmlns="http://www.w3.org/2000/svg"
 width="155.000000pt" height="129.000000pt" viewBox="0 0 155.000000 129.000000"
 preserveAspectRatio="xMidYMid meet">

<g transform="translate(0.000000,129.000000) scale(0.100000,-0.100000)"
fill="#000000" stroke="none">
<path d="M390 1130 c-30 -4 -64 -11 -74 -16 -19 -7 -19 -8 0 -14 15 -6 11 -9
-21 -20 -48 -15 -72 -33 -27 -21 24 7 30 6 26 -4 -6 -14 -57 -38 -80 -38 -8 0
-14 -7 -14 -15 0 -8 6 -12 15 -8 21 8 19 -6 -5 -32 -12 -12 -30 -22 -40 -22
-12 0 -20 -7 -20 -16 0 -12 6 -15 25 -10 18 5 25 2 25 -8 0 -22 -29 -46 -62
-53 -20 -4 -27 -10 -24 -20 4 -8 6 -16 6 -19 0 -2 7 -1 16 3 13 5 15 2 9 -18
-10 -34 -46 -64 -56 -47 -7 10 -9 9 -9 -3 0 -23 24 -41 45 -32 15 5 17 3 12
-11 -4 -10 -7 -24 -7 -32 0 -7 -14 -20 -30 -29 -28 -14 -30 -14 -30 1 0 10 -3
15 -6 11 -12 -12 19 -65 35 -59 11 4 13 0 8 -19 -4 -13 -7 -30 -7 -36 0 -7
-10 -13 -22 -14 -13 0 -17 -3 -10 -6 6 -2 12 -11 12 -18 0 -8 7 -11 21 -8 18
5 20 2 17 -28 -2 -26 -8 -35 -25 -37 -14 -2 -23 3 -26 15 -4 14 -5 13 -6 -4
-1 -14 5 -23 14 -23 17 0 20 -16 5 -25 -5 -3 -10 -14 -9 -23 0 -14 2 -14 6 -2
15 37 43 33 43 -7 0 -20 -4 -24 -20 -20 -11 3 -20 1 -20 -4 0 -5 7 -9 15 -9 9
0 12 -6 8 -16 -4 -12 0 -14 20 -9 19 5 28 2 36 -13 6 -12 11 -23 11 -26 0 -11
-53 2 -61 15 -5 8 -9 9 -9 3 0 -6 7 -17 15 -24 8 -7 15 -18 15 -24 0 -22 85
-85 98 -72 3 3 0 6 -6 6 -7 0 -12 4 -12 10 0 5 7 7 15 4 8 -4 15 -12 15 -19 0
-7 20 -15 53 -19 56 -6 228 -6 187 1 -51 8 -57 13 -36 29 21 15 19 17 -34 18
-40 1 -50 29 -12 34 16 3 22 8 18 19 -3 8 -6 16 -6 19 0 2 -11 -1 -24 -6 -21
-8 -26 -6 -32 12 -6 19 3 31 30 41 5 2 7 11 3 21 -6 14 -10 15 -28 6 -27 -15
-49 -6 -49 19 0 13 12 27 30 36 l30 16 -1 92 c-1 50 -4 82 -6 71 -3 -18 -39
-44 -59 -44 -3 0 -4 17 -2 37 2 31 8 38 33 46 34 11 45 23 45 50 0 17 -1 17
-16 3 -27 -28 -44 -20 -37 17 3 17 11 35 17 39 19 13 36 9 36 -9 0 -25 7 -12
14 29 l7 37 -31 -11 c-38 -13 -47 -6 -32 26 12 26 72 54 72 33 1 -7 10 10 20
37 11 28 18 52 16 54 -2 2 -7 -5 -10 -16 -6 -17 -44 -37 -53 -28 -2 2 1 15 6
30 10 23 22 30 57 29 7 0 17 10 23 24 10 22 9 23 -8 13 -23 -12 -51 -13 -51
-2 0 17 26 40 54 46 23 6 27 4 23 -8 -11 -27 -1 -18 28 27 20 30 22 37 8 25
-11 -10 -28 -18 -38 -18 -17 0 -17 1 1 21 12 13 27 19 41 16 13 -2 29 3 38 14
16 16 14 17 -20 9 -30 -7 -34 -6 -24 6 9 11 7 14 -15 14 -16 0 -25 4 -21 10 7
11 -13 11 -95 0z m44 -22 c-6 -10 -4 -10 7 -2 8 6 25 8 38 5 l24 -6 -27 -13
c-19 -8 -33 -9 -46 -2 -10 5 -30 10 -45 10 -15 0 -24 4 -20 10 3 6 22 10 41
10 26 0 33 -3 28 -12z m6 -43 c27 9 25 -10 -2 -29 -42 -29 -83 -13 -57 22 13
16 12 16 -7 0 -20 -18 -69 -14 -58 4 13 20 49 26 77 11 15 -8 37 -11 47 -8z
m-110 -59 c0 -20 -18 -30 -58 -33 -28 -2 -31 0 -22 17 16 30 80 43 80 16z m58
-21 c9 -8 -25 -45 -40 -45 -24 0 -31 16 -18 40 8 16 17 19 33 14 12 -3 23 -8
25 -9z m-103 -54 c6 -11 -15 -61 -26 -61 -4 0 -11 5 -14 11 -4 6 -13 8 -21 5
-17 -6 -17 -5 -4 28 7 18 17 26 34 26 14 0 27 -4 31 -9z m63 -24 c24 6 27 1
12 -27 -14 -25 -44 -41 -64 -34 -19 7 -19 14 -6 49 8 21 13 25 23 17 7 -6 23
-9 35 -5z m-109 -66 c10 -6 11 -16 4 -36 -8 -24 -15 -28 -46 -29 -27 -1 -36 3
-32 12 3 8 5 17 5 22 0 13 30 40 43 40 7 0 18 -4 26 -9z m71 -68 c0 -31 -30
-46 -52 -26 -13 11 -14 20 -7 43 9 25 12 27 34 16 15 -7 25 -19 25 -33z m-106
-39 c21 -8 22 -74 2 -74 -8 0 -17 4 -21 10 -3 5 -12 7 -20 3 -18 -6 -20 19 -5
48 11 20 19 23 44 13z m106 -48 c-1 -47 -26 -72 -61 -61 -14 5 -19 16 -19 39
0 32 1 33 40 33 23 0 40 -5 40 -11z m-112 -105 c3 -38 1 -43 -11 -32 -9 7 -26
9 -41 5 -24 -6 -26 -4 -26 24 0 34 22 53 55 49 16 -2 21 -11 23 -46z m67 3
c13 5 16 -1 13 -32 -3 -40 -22 -51 -51 -30 -13 10 -16 21 -11 46 5 26 9 30 20
21 8 -6 21 -9 29 -5z m-55 -116 c0 -25 -3 -29 -17 -23 -10 4 -25 7 -35 7 -24
-1 -34 49 -13 65 26 19 65 -11 65 -49z m150 12 c0 -19 -7 -33 -20 -40 -17 -9
-20 -7 -26 16 -5 20 -2 31 11 41 28 20 35 16 35 -17z m-63 -29 c8 -33 -20 -54
-53 -39 -17 8 -24 19 -24 38 0 24 4 26 35 26 29 -1 37 -6 42 -25z m-104 -43
c9 -7 19 -26 23 -42 6 -26 5 -27 -15 -17 -12 7 -31 9 -41 6 -14 -4 -20 -2 -20
9 0 8 -3 21 -6 29 -5 13 3 19 37 26 3 0 13 -5 22 -11z m99 -52 c12 -18 9 -46
-5 -46 -23 0 -57 31 -57 51 0 16 5 18 28 13 15 -4 30 -12 34 -18z m-70 -48 c8
-7 18 -21 21 -31 6 -14 2 -16 -21 -11 -26 6 -52 29 -52 46 0 12 34 9 52 -4z
m116 -46 c3 -18 -1 -22 -25 -22 -30 0 -53 15 -53 35 0 7 15 11 38 11 30 -2 38
-6 40 -24z m-64 -48 c4 -9 -4 -11 -32 -7 -42 7 -60 25 -34 34 20 7 59 -8 66
-27z m-85 -8 c-2 -2 -15 1 -29 6 -20 7 -22 11 -10 18 10 6 20 4 29 -5 8 -8 13
-16 10 -19z m171 -12 c13 -12 13 -14 0 -14 -30 0 -59 12 -64 26 -4 11 1 13 22
8 15 -4 34 -13 42 -20z m-43 -30 c5 -15 -43 -6 -57 11 -8 10 -4 11 22 6 17 -4
33 -11 35 -17z m98 -4 c4 -6 -8 -10 -29 -10 -19 0 -38 5 -41 10 -4 6 8 10 29
10 19 0 38 -4 41 -10z"/>
<path d="M552 1131 c-24 -15 33 -19 59 -5 23 13 23 13 -11 13 -19 1 -41 -3
-48 -8z"/>
<path d="M629 1120 c-78 -41 -154 -153 -198 -291 -121 -380 -6 -771 197 -667
26 13 51 33 56 43 5 11 21 30 36 42 24 20 52 25 266 44 132 11 248 24 258 28
11 4 -100 5 -245 3 l-264 -4 -40 -37 -40 -36 34 37 c39 42 29 49 -32 23 -49
-20 -61 -19 -96 10 -100 85 -99 370 2 559 35 66 94 116 137 116 32 0 76 -32
85 -60 8 -25 22 -26 28 -2 4 16 5 16 6 0 1 -17 24 -18 344 -17 368 2 369 1
-73 39 -134 12 -248 24 -252 26 -5 3 -8 12 -8 20 0 19 -30 75 -55 100 -45 48
-88 55 -146 24z m23 -87 c-18 -9 -49 -34 -69 -57 -19 -23 -30 -31 -24 -19 15
29 91 93 110 93 9 0 1 -8 -17 -17z m98 4 c23 -18 60 -68 60 -81 0 -6 -8 3 -19
19 -23 37 -50 61 -76 68 l-20 5 20 1 c11 0 27 -5 35 -12z m-217 -142 c-9 -19
-18 -33 -21 -31 -4 5 26 66 33 66 3 0 -3 -16 -12 -35z m-32 -72 c-12 -20 -14
-14 -5 12 4 9 9 14 11 11 3 -2 0 -13 -6 -23z m-14 -45 c-3 -8 -6 -5 -6 6 -1
11 2 17 5 13 3 -3 4 -12 1 -19z m-10 -40 c-3 -8 -6 -5 -6 6 -1 11 2 17 5 13 3
-3 4 -12 1 -19z m-10 -50 c-3 -7 -5 -2 -5 12 0 14 2 19 5 13 2 -7 2 -19 0 -25z
m-10 -70 c-2 -13 -4 -5 -4 17 -1 22 1 32 4 23 2 -10 2 -28 0 -40z m-10 -100
c-2 -13 -4 -5 -4 17 -1 22 1 32 4 23 2 -10 2 -28 0 -40z m16 -98 c4 -36 3 -46
-3 -30 -8 25 -13 97 -6 89 2 -2 6 -29 9 -59z m67 -154 c10 -11 38 -23 62 -27
42 -6 42 -7 8 -8 -53 -2 -107 46 -124 109 -4 14 2 7 14 -15 11 -22 29 -49 40
-59z"/>
<path d="M918 833 c-28 -32 -220 -412 -213 -423 3 -5 22 -10 41 -10 32 0 36 4
62 58 l27 57 51 3 51 3 -1 -58 -1 -58 35 0 c31 0 35 3 41 35 4 19 9 118 11
220 l3 185 -46 3 c-33 2 -49 -2 -61 -15z m27 -210 c-4 -18 -12 -23 -35 -23
-17 0 -30 2 -30 5 0 2 15 34 33 71 l32 66 3 -48 c2 -26 1 -58 -3 -71z"/>
<path d="M1117 843 c-2 -5 -7 -20 -11 -35 -5 -24 -3 -28 15 -28 16 0 19 -4 15
-17 -12 -29 -86 -332 -86 -348 0 -13 8 -15 37 -13 39 3 41 6 73 131 7 26 16
47 20 47 4 0 11 -35 15 -77 4 -43 12 -84 17 -90 13 -16 64 -17 73 -2 4 5 1 48
-6 95 l-12 85 30 32 c36 38 53 84 53 143 0 67 -29 84 -141 84 -48 0 -90 -3
-92 -7z m152 -72 c15 -10 8 -63 -15 -98 -18 -29 -68 -33 -60 -5 3 9 10 38 17
65 11 47 27 58 58 38z"/>
<path d="M1323 273 c-17 -6 -36 -80 -29 -109 8 -29 41 -32 55 -5 13 24 3 34
-18 19 -9 -7 -6 -1 7 14 35 39 24 97 -15 81z m9 -55 c-8 -8 -9 -4 -5 13 4 13
8 18 11 10 2 -7 -1 -18 -6 -23z"/>
<path d="M1245 263 c-32 -8 -42 -21 -49 -63 -9 -57 -30 -52 -23 5 l7 45 -33
-3 c-37 -3 -57 -33 -57 -89 0 -39 12 -54 33 -41 6 4 20 6 30 5 9 -2 20 4 23
13 5 12 10 13 20 4 8 -6 21 -8 30 -5 10 4 14 1 11 -6 -2 -7 -12 -13 -22 -13
-10 0 -20 -5 -22 -11 -5 -16 40 -26 54 -11 11 11 33 117 33 160 0 18 -1 18
-35 10z m0 -50 c-3 -16 -11 -32 -16 -38 -10 -9 -3 38 8 58 10 17 15 5 8 -20z
m-105 -24 c-12 -40 -20 -49 -20 -21 0 26 10 52 20 52 5 0 5 -14 0 -31z"/>
<path d="M814 203 l-18 -48 -9 43 c-6 31 -13 42 -26 42 -15 0 -20 -13 -27 -90
-8 -79 -8 -90 6 -88 10 2 16 17 18 42 3 34 5 36 17 20 11 -15 15 -16 29 -5 14
12 16 10 16 -19 0 -45 23 -33 31 16 18 108 17 134 -1 134 -13 0 -24 -15 -36
-47z"/>
<path d="M1036 223 c-10 -10 -16 -12 -12 -5 4 7 1 12 -8 12 -10 0 -17 -15 -21
-47 -3 -27 -8 -56 -10 -65 -7 -37 16 -28 35 14 l20 43 0 -37 c0 -41 17 -52 25
-15 10 45 10 110 0 114 -6 2 -19 -5 -29 -14z"/>
<path d="M901 206 c-20 -23 -25 -100 -8 -114 9 -8 18 -9 21 -3 3 5 14 7 24 4
24 -6 52 25 33 37 -9 5 -11 20 -6 49 7 40 6 41 -23 41 -16 0 -35 -6 -41 -14z
m33 -38 c-3 -13 -10 -30 -15 -38 -7 -13 -8 -13 -9 0 0 27 12 60 22 60 5 0 6
-10 2 -22z"/>
</g>
</svg>
